<?xml version="1.0" encoding="UTF-8"?>
<svg xmlns="http://www.w3.org/2000/svg" width="20" height="20" viewBox="0 0 20 20">
	<title>
		help
	</title>
	<path d="M10 0a10 10 0 1010 10A10 10 0 0010 0zm1 16H9v-2h2zm2.71-7.6a2.63 2.63 0 01-.34.74 3.06 3.06 0 01-.48.55l-.54.48c-.21.18-.41.35-.59.52a3 3 0 00-.47.56A2.49 2.49 0 0011 12a4.12 4.12 0 00-.11 1H9.08a8.68 8.68 0 01.08-1.25 3.54 3.54 0 01.24-.9 2.81 2.81 0 01.41-.68 4.63 4.63 0 01.58-.58l.51-.44a3 3 0 00.44-.45 1.92 1.92 0 00.3-.54 2.13 2.13 0 00.11-.72 1.94 1.94 0 00-.18-.86 1.79 1.79 0 00-.43-.58 1.69 1.69 0 00-.54-.32 1.55 1.55 0 00-.5-.1 1.77 1.77 0 00-1.53.68 3 3 0 00-.49 1.82H6.16a4.84 4.84 0 01.28-1.68 3.57 3.57 0 01.8-1.29 3.62 3.62 0 011.27-.83A4.52 4.52 0 0110.18 4a4.42 4.42 0 011.43.23 3.48 3.48 0 011.16.65 3 3 0 01.78 1.06 3.49 3.49 0 01.28 1.44 3.63 3.63 0 01-.12 1.02z"/>
</svg>
